<!-- Generated by IcoMoon.io -->
<svg version="1.1" xmlns="http://www.w3.org/2000/svg" width="512" height="512" viewBox="0 0 512 512">
<title></title>
<g id="icomoon-ignore">
</g>
<path fill="#006c84" d="M464 512h-352c-8.832 0-16-7.152-16-16v-16h-48c-8.848 0-16-7.152-16-16v-32c0-8.848 7.152-16 16-16h48v-32h-48c-8.848 0-16-7.152-16-16v-32c0-8.848 7.152-16 16-16h48v-32h-48c-8.848 0-16-7.152-16-16v-32c0-8.848 7.152-16 16-16h48v-32h-48c-8.848 0-16-7.152-16-16v-32c0-8.848 7.152-16 16-16h48v-32h-48c-8.848 0-16-7.152-16-16v-32c0-8.848 7.152-16 16-16h48v-16c0-8.848 7.168-16 16-16h352c8.848 0 16 7.152 16 16v480c0 8.848-7.152 16-16 16zM96 48h-32c-8.848 0-16 7.152-16 16s7.152 16 16 16h32c8.848 0 16-7.152 16-16s-7.152-16-16-16zM96 144h-32c-8.848 0-16 7.152-16 16s7.152 16 16 16h32c8.848 0 16-7.152 16-16s-7.152-16-16-16zM96 240h-32c-8.848 0-16 7.152-16 16s7.152 16 16 16h32c8.848 0 16-7.152 16-16s-7.152-16-16-16zM96 336h-32c-8.848 0-16 7.152-16 16s7.152 16 16 16h32c8.848 0 16-7.152 16-16s-7.152-16-16-16zM96 432h-32c-8.848 0-16 7.152-16 16s7.152 16 16 16h32c8.848 0 16-7.152 16-16s-7.152-16-16-16zM384 334c0-27.28-33.888-37.072-78.592-41.168 1.856-1.136 3.552-3.008 5.232-4.832h-6.64c8.848 0 16-7.152 16-16v-96c0-8.848-7.152-16-16-16h-32c-8.848 0-16 7.152-16 16v96c0 8.848 7.152 16 16 16h-6.64c1.68 1.824 3.392 3.68 5.232 4.832-44.704 4.096-78.592 14.256-78.592 41.168v18h192v-18z"></path>
</svg>
